<svg xmlns="http://www.w3.org/2000/svg" viewBox="0 0 1600 400" role="img" aria-labelledby="title">
  <title id="title">OpenWarden</title>

  <g transform="translate(28 28) scale(.66)">
    <path d="M220 74H86V438H220" fill="none" stroke="#F6EFE8" stroke-width="40"/>
    <path d="M292 74H426V438H292" fill="none" stroke="#FF78A1" stroke-width="40"/>
    <path d="M256 74V438" fill="none" stroke="#B72B5B" stroke-width="40"/>
    <path d="M208 256H456" fill="none" stroke="#55E4D2" stroke-width="40"/>
  </g>
<path d="M1507 711Q1507 491 1420.0 324.0Q1333 157 1171.0 68.5Q1009 -20 793 -20Q461 -20 272.5 175.5Q84 371 84 711Q84 1050 272.0 1240.0Q460 1430 795 1430Q1130 1430 1318.5 1238.0Q1507 1046 1507 711ZM1206 711Q1206 939 1098.0 1068.5Q990 1198 795 1198Q597 1198 489.0 1069.5Q381 941 381 711Q381 479 491.5 345.5Q602 212 793 212Q991 212 1098.5 342.0Q1206 472 1206 711Z" transform="translate(390.000 268) scale(0.091797 -0.091797)" fill="#F6EFE8"/>
<path d="M1167 546Q1167 275 1058.5 127.5Q950 -20 752 -20Q638 -20 553.5 29.5Q469 79 424 172H418Q424 142 424 -10V-425H143V833Q143 986 135 1082H408Q413 1064 416.5 1011.0Q420 958 420 906H424Q519 1105 770 1105Q959 1105 1063.0 959.5Q1167 814 1167 546ZM874 546Q874 910 651 910Q539 910 479.5 812.0Q420 714 420 538Q420 363 479.5 267.5Q539 172 649 172Q874 172 874 546Z" transform="translate(536.232 268) scale(0.091797 -0.091797)" fill="#F6EFE8"/>
<path d="M586 -20Q342 -20 211.0 124.5Q80 269 80 546Q80 814 213.0 958.0Q346 1102 590 1102Q823 1102 946.0 947.5Q1069 793 1069 495V487H375Q375 329 433.5 248.5Q492 168 600 168Q749 168 788 297L1053 274Q938 -20 586 -20ZM586 925Q487 925 433.5 856.0Q380 787 377 663H797Q789 794 734.0 859.5Q679 925 586 925Z" transform="translate(651.070 268) scale(0.091797 -0.091797)" fill="#F6EFE8"/>
<path d="M844 0V607Q844 892 651 892Q549 892 486.5 804.5Q424 717 424 580V0H143V840Q143 927 140.5 982.5Q138 1038 135 1082H403Q406 1063 411.0 980.5Q416 898 416 867H420Q477 991 563.0 1047.0Q649 1103 768 1103Q940 1103 1032.0 997.0Q1124 891 1124 687V0Z" transform="translate(755.627 268) scale(0.091797 -0.091797)" fill="#F6EFE8"/>
<path d="M1567 0H1217L1026 815Q991 959 967 1116Q943 985 928.0 916.5Q913 848 715 0H365L2 1409H301L505 499L551 279Q579 418 605.5 544.5Q632 671 805 1409H1135L1313 659Q1334 575 1384 279L1409 395L1462 625L1632 1409H1931Z" transform="translate(870.465 268) scale(0.091797 -0.091797)" fill="#F6EFE8"/>
<path d="M393 -20Q236 -20 148.0 65.5Q60 151 60 306Q60 474 169.5 562.0Q279 650 487 652L720 656V711Q720 817 683.0 868.5Q646 920 562 920Q484 920 447.5 884.5Q411 849 402 767L109 781Q136 939 253.5 1020.5Q371 1102 574 1102Q779 1102 890.0 1001.0Q1001 900 1001 714V320Q1001 229 1021.5 194.5Q1042 160 1090 160Q1122 160 1152 166V14Q1127 8 1107.0 3.0Q1087 -2 1067.0 -5.0Q1047 -8 1024.5 -10.0Q1002 -12 972 -12Q866 -12 815.5 40.0Q765 92 755 193H749Q631 -20 393 -20ZM720 501 576 499Q478 495 437.0 477.5Q396 460 374.5 424.0Q353 388 353 328Q353 251 388.5 213.5Q424 176 483 176Q549 176 603.5 212.0Q658 248 689.0 311.5Q720 375 720 446Z" transform="translate(1047.908 268) scale(0.091797 -0.091797)" fill="#F6EFE8"/>
<path d="M143 0V828Q143 917 140.5 976.5Q138 1036 135 1082H403Q406 1064 411.0 972.5Q416 881 416 851H420Q461 965 493.0 1011.5Q525 1058 569.0 1080.5Q613 1103 679 1103Q733 1103 766 1088V853Q698 868 646 868Q541 868 482.5 783.0Q424 698 424 531V0Z" transform="translate(1152.465 268) scale(0.091797 -0.091797)" fill="#F6EFE8"/>
<path d="M844 0Q840 15 834.5 75.5Q829 136 829 176H825Q734 -20 479 -20Q290 -20 187.0 127.5Q84 275 84 540Q84 809 192.5 955.5Q301 1102 500 1102Q615 1102 698.5 1054.0Q782 1006 827 911H829L827 1089V1484H1108V236Q1108 136 1116 0ZM831 547Q831 722 772.5 816.5Q714 911 600 911Q487 911 432.0 819.5Q377 728 377 540Q377 172 598 172Q709 172 770.0 269.5Q831 367 831 547Z" transform="translate(1225.627 268) scale(0.091797 -0.091797)" fill="#F6EFE8"/>
<path d="M586 -20Q342 -20 211.0 124.5Q80 269 80 546Q80 814 213.0 958.0Q346 1102 590 1102Q823 1102 946.0 947.5Q1069 793 1069 495V487H375Q375 329 433.5 248.5Q492 168 600 168Q749 168 788 297L1053 274Q938 -20 586 -20ZM586 925Q487 925 433.5 856.0Q380 787 377 663H797Q789 794 734.0 859.5Q679 925 586 925Z" transform="translate(1340.465 268) scale(0.091797 -0.091797)" fill="#F6EFE8"/>
<path d="M844 0V607Q844 892 651 892Q549 892 486.5 804.5Q424 717 424 580V0H143V840Q143 927 140.5 982.5Q138 1038 135 1082H403Q406 1063 411.0 980.5Q416 898 416 867H420Q477 991 563.0 1047.0Q649 1103 768 1103Q940 1103 1032.0 997.0Q1124 891 1124 687V0Z" transform="translate(1445.021 268) scale(0.091797 -0.091797)" fill="#F6EFE8"/>
</svg>
