<svg xmlns="http://www.w3.org/2000/svg" viewBox="0 0 1280 640" role="img" aria-labelledby="title">
  <title id="title">OpenWarden - composable inference guardrails</title>
  <defs>
    <pattern id="dots" width="32" height="32" patternUnits="userSpaceOnUse">
      <circle cx="2" cy="2" r="1.5" fill="#FF78A1" opacity=".16"/>
    </pattern>
  </defs>
  <rect width="1280" height="640" fill="#1B1118"/>
  <rect width="1280" height="640" fill="url(#dots)"/>
  <rect x="0" y="0" width="22" height="640" fill="#B72B5B"/>
  <path d="M0 470H1280" stroke="#55E4D2" stroke-width="8"/>
  <g transform="translate(74 134) scale(.58)">
    <path d="M220 74H86V438H220" fill="none" stroke="#F6EFE8" stroke-width="40"/>
    <path d="M292 74H426V438H292" fill="none" stroke="#FF78A1" stroke-width="40"/>
    <path d="M256 74V438" fill="none" stroke="#B72B5B" stroke-width="40"/>
    <path d="M208 256H456" fill="none" stroke="#55E4D2" stroke-width="40"/>
  </g>
<path d="M1507 711Q1507 491 1420.0 324.0Q1333 157 1171.0 68.5Q1009 -20 793 -20Q461 -20 272.5 175.5Q84 371 84 711Q84 1050 272.0 1240.0Q460 1430 795 1430Q1130 1430 1318.5 1238.0Q1507 1046 1507 711ZM1206 711Q1206 939 1098.0 1068.5Q990 1198 795 1198Q597 1198 489.0 1069.5Q381 941 381 711Q381 479 491.5 345.5Q602 212 793 212Q991 212 1098.5 342.0Q1206 472 1206 711Z" transform="translate(418.000 292) scale(0.054688 -0.054688)" fill="#F6EFE8"/>
<path d="M1167 546Q1167 275 1058.5 127.5Q950 -20 752 -20Q638 -20 553.5 29.5Q469 79 424 172H418Q424 142 424 -10V-425H143V833Q143 986 135 1082H408Q413 1064 416.5 1011.0Q420 958 420 906H424Q519 1105 770 1105Q959 1105 1063.0 959.5Q1167 814 1167 546ZM874 546Q874 910 651 910Q539 910 479.5 812.0Q420 714 420 538Q420 363 479.5 267.5Q539 172 649 172Q874 172 874 546Z" transform="translate(505.117 292) scale(0.054688 -0.054688)" fill="#F6EFE8"/>
<path d="M586 -20Q342 -20 211.0 124.5Q80 269 80 546Q80 814 213.0 958.0Q346 1102 590 1102Q823 1102 946.0 947.5Q1069 793 1069 495V487H375Q375 329 433.5 248.5Q492 168 600 168Q749 168 788 297L1053 274Q938 -20 586 -20ZM586 925Q487 925 433.5 856.0Q380 787 377 663H797Q789 794 734.0 859.5Q679 925 586 925Z" transform="translate(573.531 292) scale(0.054688 -0.054688)" fill="#F6EFE8"/>
<path d="M844 0V607Q844 892 651 892Q549 892 486.5 804.5Q424 717 424 580V0H143V840Q143 927 140.5 982.5Q138 1038 135 1082H403Q406 1063 411.0 980.5Q416 898 416 867H420Q477 991 563.0 1047.0Q649 1103 768 1103Q940 1103 1032.0 997.0Q1124 891 1124 687V0Z" transform="translate(635.820 292) scale(0.054688 -0.054688)" fill="#F6EFE8"/>
<path d="M1567 0H1217L1026 815Q991 959 967 1116Q943 985 928.0 916.5Q913 848 715 0H365L2 1409H301L505 499L551 279Q579 418 605.5 544.5Q632 671 805 1409H1135L1313 659Q1334 575 1384 279L1409 395L1462 625L1632 1409H1931Z" transform="translate(704.234 292) scale(0.054688 -0.054688)" fill="#F6EFE8"/>
<path d="M393 -20Q236 -20 148.0 65.5Q60 151 60 306Q60 474 169.5 562.0Q279 650 487 652L720 656V711Q720 817 683.0 868.5Q646 920 562 920Q484 920 447.5 884.5Q411 849 402 767L109 781Q136 939 253.5 1020.5Q371 1102 574 1102Q779 1102 890.0 1001.0Q1001 900 1001 714V320Q1001 229 1021.5 194.5Q1042 160 1090 160Q1122 160 1152 166V14Q1127 8 1107.0 3.0Q1087 -2 1067.0 -5.0Q1047 -8 1024.5 -10.0Q1002 -12 972 -12Q866 -12 815.5 40.0Q765 92 755 193H749Q631 -20 393 -20ZM720 501 576 499Q478 495 437.0 477.5Q396 460 374.5 424.0Q353 388 353 328Q353 251 388.5 213.5Q424 176 483 176Q549 176 603.5 212.0Q658 248 689.0 311.5Q720 375 720 446Z" transform="translate(809.945 292) scale(0.054688 -0.054688)" fill="#F6EFE8"/>
<path d="M143 0V828Q143 917 140.5 976.5Q138 1036 135 1082H403Q406 1064 411.0 972.5Q416 881 416 851H420Q461 965 493.0 1011.5Q525 1058 569.0 1080.5Q613 1103 679 1103Q733 1103 766 1088V853Q698 868 646 868Q541 868 482.5 783.0Q424 698 424 531V0Z" transform="translate(872.234 292) scale(0.054688 -0.054688)" fill="#F6EFE8"/>
<path d="M844 0Q840 15 834.5 75.5Q829 136 829 176H825Q734 -20 479 -20Q290 -20 187.0 127.5Q84 275 84 540Q84 809 192.5 955.5Q301 1102 500 1102Q615 1102 698.5 1054.0Q782 1006 827 911H829L827 1089V1484H1108V236Q1108 136 1116 0ZM831 547Q831 722 772.5 816.5Q714 911 600 911Q487 911 432.0 819.5Q377 728 377 540Q377 172 598 172Q709 172 770.0 269.5Q831 367 831 547Z" transform="translate(915.820 292) scale(0.054688 -0.054688)" fill="#F6EFE8"/>
<path d="M586 -20Q342 -20 211.0 124.5Q80 269 80 546Q80 814 213.0 958.0Q346 1102 590 1102Q823 1102 946.0 947.5Q1069 793 1069 495V487H375Q375 329 433.5 248.5Q492 168 600 168Q749 168 788 297L1053 274Q938 -20 586 -20ZM586 925Q487 925 433.5 856.0Q380 787 377 663H797Q789 794 734.0 859.5Q679 925 586 925Z" transform="translate(984.234 292) scale(0.054688 -0.054688)" fill="#F6EFE8"/>
<path d="M844 0V607Q844 892 651 892Q549 892 486.5 804.5Q424 717 424 580V0H143V840Q143 927 140.5 982.5Q138 1038 135 1082H403Q406 1063 411.0 980.5Q416 898 416 867H420Q477 991 563.0 1047.0Q649 1103 768 1103Q940 1103 1032.0 997.0Q1124 891 1124 687V0Z" transform="translate(1046.523 292) scale(0.054688 -0.054688)" fill="#F6EFE8"/>
<path d="M792 1274Q558 1274 428.0 1123.5Q298 973 298 711Q298 452 433.5 294.5Q569 137 800 137Q1096 137 1245 430L1401 352Q1314 170 1156.5 75.0Q999 -20 791 -20Q578 -20 422.5 68.5Q267 157 185.5 321.5Q104 486 104 711Q104 1048 286.0 1239.0Q468 1430 790 1430Q1015 1430 1166.0 1342.0Q1317 1254 1388 1081L1207 1021Q1158 1144 1049.5 1209.0Q941 1274 792 1274Z" transform="translate(422.000 378) scale(0.014648 -0.014648)" fill="#55E4D2"/>
<path d="M1495 711Q1495 490 1410.5 324.0Q1326 158 1168.0 69.0Q1010 -20 795 -20Q578 -20 420.5 68.0Q263 156 180.0 322.5Q97 489 97 711Q97 1049 282.0 1239.5Q467 1430 797 1430Q1012 1430 1170.0 1344.5Q1328 1259 1411.5 1096.0Q1495 933 1495 711ZM1300 711Q1300 974 1168.5 1124.0Q1037 1274 797 1274Q555 1274 423.0 1126.0Q291 978 291 711Q291 446 424.5 290.5Q558 135 795 135Q1039 135 1169.5 285.5Q1300 436 1300 711Z" transform="translate(443.665 378) scale(0.014648 -0.014648)" fill="#55E4D2"/>
<path d="M1366 0V940Q1366 1096 1375 1240Q1326 1061 1287 960L923 0H789L420 960L364 1130L331 1240L334 1129L338 940V0H168V1409H419L794 432Q814 373 832.5 305.5Q851 238 857 208Q865 248 890.5 329.5Q916 411 925 432L1293 1409H1538V0Z" transform="translate(467.000 378) scale(0.014648 -0.014648)" fill="#55E4D2"/>
<path d="M1258 985Q1258 785 1127.5 667.0Q997 549 773 549H359V0H168V1409H761Q998 1409 1128.0 1298.0Q1258 1187 1258 985ZM1066 983Q1066 1256 738 1256H359V700H746Q1066 700 1066 983Z" transform="translate(491.990 378) scale(0.014648 -0.014648)" fill="#55E4D2"/>
<path d="M1495 711Q1495 490 1410.5 324.0Q1326 158 1168.0 69.0Q1010 -20 795 -20Q578 -20 420.5 68.0Q263 156 180.0 322.5Q97 489 97 711Q97 1049 282.0 1239.5Q467 1430 797 1430Q1012 1430 1170.0 1344.5Q1328 1259 1411.5 1096.0Q1495 933 1495 711ZM1300 711Q1300 974 1168.5 1124.0Q1037 1274 797 1274Q555 1274 423.0 1126.0Q291 978 291 711Q291 446 424.5 290.5Q558 135 795 135Q1039 135 1169.5 285.5Q1300 436 1300 711Z" transform="translate(512.000 378) scale(0.014648 -0.014648)" fill="#55E4D2"/>
<path d="M1272 389Q1272 194 1119.5 87.0Q967 -20 690 -20Q175 -20 93 338L278 375Q310 248 414.0 188.5Q518 129 697 129Q882 129 982.5 192.5Q1083 256 1083 379Q1083 448 1051.5 491.0Q1020 534 963.0 562.0Q906 590 827.0 609.0Q748 628 652 650Q485 687 398.5 724.0Q312 761 262.0 806.5Q212 852 185.5 913.0Q159 974 159 1053Q159 1234 297.5 1332.0Q436 1430 694 1430Q934 1430 1061.0 1356.5Q1188 1283 1239 1106L1051 1073Q1020 1185 933.0 1235.5Q846 1286 692 1286Q523 1286 434.0 1230.0Q345 1174 345 1063Q345 998 379.5 955.5Q414 913 479.0 883.5Q544 854 738 811Q803 796 867.5 780.5Q932 765 991.0 743.5Q1050 722 1101.5 693.0Q1153 664 1191.0 622.0Q1229 580 1250.5 523.0Q1272 466 1272 389Z" transform="translate(535.335 378) scale(0.014648 -0.014648)" fill="#55E4D2"/>
<path d="M1167 0 1006 412H364L202 0H4L579 1409H796L1362 0ZM685 1265 676 1237Q651 1154 602 1024L422 561H949L768 1026Q740 1095 712 1182Z" transform="translate(555.345 378) scale(0.014648 -0.014648)" fill="#55E4D2"/>
<path d="M1258 397Q1258 209 1121.0 104.5Q984 0 740 0H168V1409H680Q1176 1409 1176 1067Q1176 942 1106.0 857.0Q1036 772 908 743Q1076 723 1167.0 630.5Q1258 538 1258 397ZM984 1044Q984 1158 906.0 1207.0Q828 1256 680 1256H359V810H680Q833 810 908.5 867.5Q984 925 984 1044ZM1065 412Q1065 661 715 661H359V153H730Q905 153 985.0 218.0Q1065 283 1065 412Z" transform="translate(575.354 378) scale(0.014648 -0.014648)" fill="#55E4D2"/>
<path d="M168 0V1409H359V156H1071V0Z" transform="translate(595.364 378) scale(0.014648 -0.014648)" fill="#55E4D2"/>
<path d="M168 0V1409H1237V1253H359V801H1177V647H359V156H1278V0Z" transform="translate(612.049 378) scale(0.014648 -0.014648)" fill="#55E4D2"/>
<path d="M189 0V1409H380V0Z" transform="translate(640.394 378) scale(0.014648 -0.014648)" fill="#55E4D2"/>
<path d="M1082 0 328 1200 333 1103 338 936V0H168V1409H390L1152 201Q1140 397 1140 485V1409H1312V0Z" transform="translate(648.729 378) scale(0.014648 -0.014648)" fill="#55E4D2"/>
<path d="M359 1253V729H1145V571H359V0H168V1409H1169V1253Z" transform="translate(670.394 378) scale(0.014648 -0.014648)" fill="#55E4D2"/>
<path d="M168 0V1409H1237V1253H359V801H1177V647H359V156H1278V0Z" transform="translate(688.719 378) scale(0.014648 -0.014648)" fill="#55E4D2"/>
<path d="M1164 0 798 585H359V0H168V1409H831Q1069 1409 1198.5 1302.5Q1328 1196 1328 1006Q1328 849 1236.5 742.0Q1145 635 984 607L1384 0ZM1136 1004Q1136 1127 1052.5 1191.5Q969 1256 812 1256H359V736H820Q971 736 1053.5 806.5Q1136 877 1136 1004Z" transform="translate(708.729 378) scale(0.014648 -0.014648)" fill="#55E4D2"/>
<path d="M168 0V1409H1237V1253H359V801H1177V647H359V156H1278V0Z" transform="translate(730.394 378) scale(0.014648 -0.014648)" fill="#55E4D2"/>
<path d="M1082 0 328 1200 333 1103 338 936V0H168V1409H390L1152 201Q1140 397 1140 485V1409H1312V0Z" transform="translate(750.403 378) scale(0.014648 -0.014648)" fill="#55E4D2"/>
<path d="M792 1274Q558 1274 428.0 1123.5Q298 973 298 711Q298 452 433.5 294.5Q569 137 800 137Q1096 137 1245 430L1401 352Q1314 170 1156.5 75.0Q999 -20 791 -20Q578 -20 422.5 68.5Q267 157 185.5 321.5Q104 486 104 711Q104 1048 286.0 1239.0Q468 1430 790 1430Q1015 1430 1166.0 1342.0Q1317 1254 1388 1081L1207 1021Q1158 1144 1049.5 1209.0Q941 1274 792 1274Z" transform="translate(772.068 378) scale(0.014648 -0.014648)" fill="#55E4D2"/>
<path d="M168 0V1409H1237V1253H359V801H1177V647H359V156H1278V0Z" transform="translate(793.733 378) scale(0.014648 -0.014648)" fill="#55E4D2"/>
<path d="M103 711Q103 1054 287.0 1242.0Q471 1430 804 1430Q1038 1430 1184.0 1351.0Q1330 1272 1409 1098L1227 1044Q1167 1164 1061.5 1219.0Q956 1274 799 1274Q555 1274 426.0 1126.5Q297 979 297 711Q297 444 434.0 289.5Q571 135 813 135Q951 135 1070.5 177.0Q1190 219 1264 291V545H843V705H1440V219Q1328 105 1165.5 42.5Q1003 -20 813 -20Q592 -20 432.0 68.0Q272 156 187.5 321.5Q103 487 103 711Z" transform="translate(822.078 378) scale(0.014648 -0.014648)" fill="#55E4D2"/>
<path d="M731 -20Q558 -20 429.0 43.0Q300 106 229.0 226.0Q158 346 158 512V1409H349V528Q349 335 447.0 235.0Q545 135 730 135Q920 135 1025.5 238.5Q1131 342 1131 541V1409H1321V530Q1321 359 1248.5 235.0Q1176 111 1043.5 45.5Q911 -20 731 -20Z" transform="translate(845.413 378) scale(0.014648 -0.014648)" fill="#55E4D2"/>
<path d="M1167 0 1006 412H364L202 0H4L579 1409H796L1362 0ZM685 1265 676 1237Q651 1154 602 1024L422 561H949L768 1026Q740 1095 712 1182Z" transform="translate(867.078 378) scale(0.014648 -0.014648)" fill="#55E4D2"/>
<path d="M1164 0 798 585H359V0H168V1409H831Q1069 1409 1198.5 1302.5Q1328 1196 1328 1006Q1328 849 1236.5 742.0Q1145 635 984 607L1384 0ZM1136 1004Q1136 1127 1052.5 1191.5Q969 1256 812 1256H359V736H820Q971 736 1053.5 806.5Q1136 877 1136 1004Z" transform="translate(887.088 378) scale(0.014648 -0.014648)" fill="#55E4D2"/>
<path d="M1381 719Q1381 501 1296.0 337.5Q1211 174 1055.0 87.0Q899 0 695 0H168V1409H634Q992 1409 1186.5 1229.5Q1381 1050 1381 719ZM1189 719Q1189 981 1045.5 1118.5Q902 1256 630 1256H359V153H673Q828 153 945.5 221.0Q1063 289 1126.0 417.0Q1189 545 1189 719Z" transform="translate(908.753 378) scale(0.014648 -0.014648)" fill="#55E4D2"/>
<path d="M1164 0 798 585H359V0H168V1409H831Q1069 1409 1198.5 1302.5Q1328 1196 1328 1006Q1328 849 1236.5 742.0Q1145 635 984 607L1384 0ZM1136 1004Q1136 1127 1052.5 1191.5Q969 1256 812 1256H359V736H820Q971 736 1053.5 806.5Q1136 877 1136 1004Z" transform="translate(930.418 378) scale(0.014648 -0.014648)" fill="#55E4D2"/>
<path d="M1167 0 1006 412H364L202 0H4L579 1409H796L1362 0ZM685 1265 676 1237Q651 1154 602 1024L422 561H949L768 1026Q740 1095 712 1182Z" transform="translate(952.083 378) scale(0.014648 -0.014648)" fill="#55E4D2"/>
<path d="M189 0V1409H380V0Z" transform="translate(972.093 378) scale(0.014648 -0.014648)" fill="#55E4D2"/>
<path d="M168 0V1409H359V156H1071V0Z" transform="translate(980.428 378) scale(0.014648 -0.014648)" fill="#55E4D2"/>
<path d="M1272 389Q1272 194 1119.5 87.0Q967 -20 690 -20Q175 -20 93 338L278 375Q310 248 414.0 188.5Q518 129 697 129Q882 129 982.5 192.5Q1083 256 1083 379Q1083 448 1051.5 491.0Q1020 534 963.0 562.0Q906 590 827.0 609.0Q748 628 652 650Q485 687 398.5 724.0Q312 761 262.0 806.5Q212 852 185.5 913.0Q159 974 159 1053Q159 1234 297.5 1332.0Q436 1430 694 1430Q934 1430 1061.0 1356.5Q1188 1283 1239 1106L1051 1073Q1020 1185 933.0 1235.5Q846 1286 692 1286Q523 1286 434.0 1230.0Q345 1174 345 1063Q345 998 379.5 955.5Q414 913 479.0 883.5Q544 854 738 811Q803 796 867.5 780.5Q932 765 991.0 743.5Q1050 722 1101.5 693.0Q1153 664 1191.0 622.0Q1229 580 1250.5 523.0Q1272 466 1272 389Z" transform="translate(997.112 378) scale(0.014648 -0.014648)" fill="#55E4D2"/>
</svg>
